# xmcd
#
# Track frame offsets:
#	150
#	13595
#	25585
#	37150
#	48760
#	61710
#	72413
#	83539
#	98618
#	110363
#	120497
#	131542
#	141718
#	154354
#	167149
#	177148
#	191930
#	205395
#	218474
#	230199
#
# Disc length: 3226 seconds
#
# Revision: 0
# Processed by: cddbd v1.5.2PL0 Copyright (c) Steve Scherf et al.
# Submitted via: EasyCDDAExtractor 12.0.1.1
#
DISCID=170c9814
DTITLE=Conway Twitty
DYEAR=2000
DGENRE=Country
TTITLE0=Babys Got Her Blue Jeans On
TTITLE1=Before The Next Teardrop Falls
TTITLE2=Blueberry Hill
TTITLE3=Darling, You Know I Wouldn't L
TTITLE4=Happy Birthday Darlin
TTITLE5=Heavenly
TTITLE6=Hello Darlin'
TTITLE7=I'd Just Love To Lay You Down
TTITLE8=Is a bluebird blue
TTITLE9=It's Only Make Believe
TTITLE10=Lead Me On
TTITLE11=Lonely Blue Boy
TTITLE12=The Long Black Train
TTITLE13=Next In Line
TTITLE14=Pop A Top
TTITLE15=Saturday Night Special (with V
TTITLE16=She's Got A Man On Her Mind
TTITLE17=Slow Hand
TTITLE18=Such A Night
TTITLE19=What Am I Living For
EXTD=
EXTT0=
EXTT1=
EXTT2=
EXTT3=
EXTT4=
EXTT5=
EXTT6=
EXTT7=
EXTT8=
EXTT9=
EXTT10=
EXTT11=
EXTT12=
EXTT13=
EXTT14=
EXTT15=
EXTT16=
EXTT17=
EXTT18=
EXTT19=
PLAYORDER=
